<svg xmlns="http://www.w3.org/2000/svg" width="25" height="20" fill="none" viewBox="0 0 25 20">
<!-- SVG created with Arrow, by QuiverAI (https://quiver.ai) -->
  <path d="m12.49 1.01c-5.08-0.04-9.48 3.1-11.33 7.82-0.4 1.06 0.35 2.15 1.49 2.15 0.81 0 1.47-0.53 1.76-1.32 1.3-3.4 4.43-5.35 8.01-5.35 3.67 0 6.94 2.21 8.17 5.5 0.27 0.74 0.93 1.19 1.67 1.17 1.11-0.02 1.9-1.13 1.55-2.22-1.52-4.66-5.79-7.71-11.32-7.75z" fill="#F9BF26" stroke="#222E3A" stroke-linecap="round" stroke-linejoin="round" stroke-width="1.37"/>
  <path d="m6.88 13.08c-1.1-0.32-2.06 0.59-1.86 1.72 0.06 0.37 0.24 0.64 0.51 0.95 1.83 2.13 4.23 3.22 6.93 3.22 2.81 0 5.31-1.25 7.16-3.44 0.87-1.03 0.15-2.66-1.13-2.46-0.12 0-0.24 0.02-0.36 0.06" stroke="#222E3A" stroke-linecap="round" stroke-linejoin="round" stroke-width="1.5"/>
  <path d="m12.96 7.29 1 2.07 2.22 0.31c0.56 0.08 0.79 0.8 0.28 1.25l-1.55 1.45 0.35 1.89c0.11 0.56-0.47 0.85-0.89 0.62l-1.91-1.04-1.88 1.02c-0.43 0.23-0.96-0.1-0.85-0.61l0.37-2.18-1.53-1.43c-0.37-0.35-0.19-1.05 0.37-1.1l2.04-0.28 1.03-2.02c0.23-0.45 0.74-0.38 0.95 0.05z" fill="#F9BF26" stroke="#222E3A" stroke-linecap="round" stroke-linejoin="round" stroke-width="1.4"/>
</svg>